<svg height="480pt" viewBox="0 0 480 480" width="480pt" xmlns="http://www.w3.org/2000/svg"><path d="m472 0h-464c-4.417969 0-8 3.582031-8 8v384c0 4.417969 3.582031 8 8 8h200v16h-88c-4.417969 0-8 3.582031-8 8v48c0 4.417969 3.582031 8 8 8h240c4.417969 0 8-3.582031 8-8v-48c0-4.417969-3.582031-8-8-8h-88v-16h200c4.417969 0 8-3.582031 8-8v-384c0-4.417969-3.582031-8-8-8zm-120 432v32h-224v-32zm-128-16v-16h32v16zm240-32h-448v-368h448zm0 0"/><path d="m40 368h400c4.417969 0 8-3.582031 8-8v-320c0-4.417969-3.582031-8-8-8h-400c-4.417969 0-8 3.582031-8 8v320c0 4.417969 3.582031 8 8 8zm8-320h384v304h-384zm0 0"/><path d="m327.574219 216.550781.097656-1.34375c.160156-2.398437.328125-4.800781.328125-7.199219.011719-16.449218-3.152344-32.746093-9.3125-48h81.3125v-16.007812h-89.238281c-11.5625-20.167969-28.445313-36.773438-48.800781-48h58.039062v16h16v-48h-16v16h-240v-16h-16v48h16v-16h58.070312c-10.480468 5.796875-20.097656 13.03125-28.574218 21.496094-3.125 3.125-3.125 8.1875 0 11.3125l39.59375 39.589844c3.121094 3.125 8.1875 3.125 11.308594 0 16.015624-16.015626 40.105468-20.808594 61.03125-12.140626 20.929687 8.667969 34.570312 29.089844 34.570312 51.742188-.015625 2.34375-.179688 4.683594-.496094 7.007812-3.527344 27.976563-27.308594 48.964844-55.503906 48.992188-4.417969 0-8 3.582031-8 8v56c0 4.417969 3.582031 8 8 8 21.628906-.035156 42.894531-5.539062 61.824219-16h82.175781v-16h-59.566406c8.042968-7.074219 15.152344-15.136719 21.167968-24h94.398438v-16h-85.152344c7.265625-14.847656 11.585938-30.960938 12.726563-47.449219zm-135.574219-80.109375c-13.523438 1.46875-26.34375 6.78125-36.945312 15.300782l-28.398438-28.398438c18.246094-15.902344 41.195312-25.40625 65.34375-27.0625zm52.945312 15.300782c-10.601562-8.519532-23.421874-13.832032-36.945312-15.300782v-40.160156c24.148438 1.65625 47.097656 11.160156 65.34375 27.0625zm-36.945312 167.96875v-40.160157c9.628906-1.058593 18.945312-4.078125 27.367188-8.863281l28.984374 28.976562c-16.625 11.65625-36.101562 18.585938-56.351562 20.046876zm68.800781-30.214844-28.320312-28.328125c10.835937-9.898438 18.394531-22.863281 21.671875-37.167969h40.566406c-3.625 25.023438-15.574219 48.09375-33.917969 65.496094zm-4.800781-81.496094c.046875-16.339844-5.507812-32.203125-15.742188-44.945312l28.398438-28.398438c17.703125 20.324219 27.417969 46.390625 27.34375 73.34375zm0 0"/><path d="m392 192h-48v48h48v-16h24v-16h-24zm-16 32h-16v-16h16zm0 0"/><path d="m360 304h16v16h-16zm0 0"/></svg>